M48
;Layer_Color=9474304
;FILE_FORMAT=4:4
METRIC,LZ
;TYPE=PLATED
T1F00S00C0.3000
T2F00S00C0.7000
T3F00S00C0.8100
T4F00S00C1.1000
;TYPE=NON_PLATED
T5F00S00C3.2000
%
T01
X0003Y0011
X00265Y00105
X00285Y0029
X00305Y0053
X0022Y006
X001
X00095Y00525
Y005
Y0048
X00065
Y005
Y00525
X00035
Y005
Y0048
X0014Y00515
Y00405
X00065Y00345
X00145Y0027
T02
X002045Y00506
T03
X0003Y001838
X001062
Y0026
X0003
T04
X001009Y00045007
X001263
X001517
X001771
X0017785Y001065
X0015245
X0012705
X0010165
X00305049Y0021425
X001222Y00346558
X000968
X0002175Y003422
Y003168
T05
X0003Y0003
X00295
Y0059
X0003
M30
