G04*
G04 #@! TF.GenerationSoftware,Altium Limited,Altium Designer,21.6.4 (81)*
G04*
G04 Layer_Color=32896*
%FSLAX44Y44*%
%MOMM*%
G71*
G04*
G04 #@! TF.SameCoordinates,CE7750B5-B6F3-47FA-9723-5704EF157F2E*
G04*
G04*
G04 #@! TF.FilePolarity,Positive*
G04*
G01*
G75*
%ADD10C,0.2000*%
G36*
X282363Y217105D02*
X282417Y217100D01*
X282480Y217090D01*
X282553Y217081D01*
X282625Y217066D01*
X282708Y217047D01*
X282790Y217023D01*
X282878Y216994D01*
X282960Y216959D01*
X283047Y216916D01*
X283130Y216867D01*
X283207Y216814D01*
X283280Y216751D01*
X283285Y216746D01*
X283295Y216736D01*
X283314Y216712D01*
X283338Y216688D01*
X283368Y216654D01*
X283402Y216610D01*
X283435Y216562D01*
X283469Y216504D01*
X283503Y216445D01*
X283537Y216377D01*
X283571Y216305D01*
X283600Y216227D01*
X283625Y216140D01*
X283644Y216052D01*
X283654Y215960D01*
X283659Y215863D01*
Y215858D01*
Y215853D01*
Y215839D01*
Y215819D01*
X283654Y215766D01*
X283644Y215698D01*
X283629Y215616D01*
X283610Y215528D01*
X283586Y215431D01*
X283547Y215334D01*
Y215329D01*
X283542Y215325D01*
X283537Y215310D01*
X283528Y215291D01*
X283498Y215237D01*
X283460Y215169D01*
X283406Y215087D01*
X283343Y214995D01*
X283270Y214898D01*
X283178Y214791D01*
X283174Y214786D01*
X283169Y214776D01*
X283149Y214762D01*
X283130Y214738D01*
X283101Y214708D01*
X283067Y214674D01*
X283028Y214631D01*
X282979Y214587D01*
X282921Y214534D01*
X282858Y214476D01*
X282790Y214408D01*
X282713Y214340D01*
X282630Y214262D01*
X282538Y214184D01*
X282436Y214097D01*
X282329Y214005D01*
X282325Y214000D01*
X282310Y213986D01*
X282281Y213966D01*
X282252Y213937D01*
X282208Y213903D01*
X282164Y213864D01*
X282062Y213777D01*
X281956Y213685D01*
X281854Y213588D01*
X281805Y213544D01*
X281762Y213505D01*
X281723Y213466D01*
X281694Y213437D01*
X281689Y213433D01*
X281670Y213413D01*
X281645Y213384D01*
X281611Y213345D01*
X281572Y213302D01*
X281534Y213253D01*
X281456Y213146D01*
X283664D01*
Y212617D01*
X280699D01*
Y212627D01*
Y212652D01*
Y212690D01*
X280704Y212739D01*
X280709Y212797D01*
X280723Y212860D01*
X280738Y212928D01*
X280762Y212996D01*
Y213001D01*
X280767Y213011D01*
X280772Y213025D01*
X280782Y213049D01*
X280796Y213074D01*
X280811Y213107D01*
X280850Y213185D01*
X280898Y213277D01*
X280961Y213379D01*
X281034Y213486D01*
X281121Y213593D01*
X281126Y213598D01*
X281131Y213607D01*
X281146Y213622D01*
X281170Y213646D01*
X281194Y213670D01*
X281228Y213704D01*
X281262Y213743D01*
X281306Y213787D01*
X281354Y213835D01*
X281408Y213884D01*
X281466Y213942D01*
X281534Y214000D01*
X281602Y214063D01*
X281679Y214126D01*
X281757Y214194D01*
X281844Y214267D01*
X281854Y214272D01*
X281878Y214296D01*
X281912Y214325D01*
X281961Y214369D01*
X282019Y214417D01*
X282087Y214476D01*
X282164Y214539D01*
X282242Y214611D01*
X282407Y214762D01*
X282567Y214922D01*
X282645Y215000D01*
X282717Y215077D01*
X282780Y215150D01*
X282834Y215218D01*
X282839Y215223D01*
X282844Y215232D01*
X282858Y215252D01*
X282873Y215276D01*
X282897Y215310D01*
X282916Y215344D01*
X282965Y215431D01*
X283013Y215533D01*
X283057Y215645D01*
X283086Y215761D01*
X283091Y215819D01*
X283096Y215878D01*
Y215882D01*
Y215892D01*
Y215912D01*
X283091Y215931D01*
Y215960D01*
X283081Y215994D01*
X283067Y216067D01*
X283038Y216154D01*
X282994Y216246D01*
X282970Y216295D01*
X282936Y216339D01*
X282902Y216382D01*
X282858Y216426D01*
X282853Y216431D01*
X282848Y216436D01*
X282834Y216445D01*
X282815Y216460D01*
X282790Y216479D01*
X282761Y216499D01*
X282693Y216542D01*
X282601Y216581D01*
X282499Y216620D01*
X282378Y216644D01*
X282310Y216654D01*
X282203D01*
X282174Y216649D01*
X282140D01*
X282101Y216639D01*
X282014Y216625D01*
X281912Y216596D01*
X281805Y216552D01*
X281752Y216523D01*
X281699Y216494D01*
X281650Y216455D01*
X281602Y216411D01*
X281597Y216406D01*
X281592Y216402D01*
X281582Y216387D01*
X281563Y216368D01*
X281548Y216343D01*
X281529Y216314D01*
X281505Y216280D01*
X281485Y216241D01*
X281461Y216198D01*
X281442Y216149D01*
X281403Y216033D01*
X281374Y215907D01*
X281369Y215834D01*
X281364Y215756D01*
X280801Y215815D01*
Y215824D01*
X280806Y215844D01*
X280811Y215873D01*
X280816Y215917D01*
X280825Y215970D01*
X280840Y216033D01*
X280854Y216101D01*
X280879Y216174D01*
X280903Y216246D01*
X280932Y216329D01*
X280971Y216406D01*
X281010Y216484D01*
X281058Y216567D01*
X281112Y216639D01*
X281170Y216712D01*
X281238Y216775D01*
X281243Y216780D01*
X281257Y216790D01*
X281277Y216804D01*
X281306Y216828D01*
X281345Y216853D01*
X281393Y216882D01*
X281446Y216911D01*
X281509Y216945D01*
X281577Y216974D01*
X281655Y217003D01*
X281737Y217032D01*
X281830Y217057D01*
X281927Y217081D01*
X282029Y217095D01*
X282140Y217105D01*
X282257Y217110D01*
X282320D01*
X282363Y217105D01*
D02*
G37*
G36*
X278084Y213146D02*
X280292D01*
Y212617D01*
X277493D01*
Y217095D01*
X278084D01*
Y213146D01*
D02*
G37*
D10*
X269179Y210186D02*
Y218814D01*
Y210186D02*
X285806D01*
Y218814D01*
X269179D02*
X285806D01*
M02*
