G04*
G04 #@! TF.GenerationSoftware,Altium Limited,Altium Designer,21.6.4 (81)*
G04*
G04 Layer_Color=65535*
%FSLAX44Y44*%
%MOMM*%
G71*
G04*
G04 #@! TF.SameCoordinates,CE7750B5-B6F3-47FA-9723-5704EF157F2E*
G04*
G04*
G04 #@! TF.FilePolarity,Positive*
G04*
G01*
G75*
%ADD10C,0.2000*%
%ADD11C,0.2500*%
%ADD12C,0.1270*%
%ADD13C,0.1000*%
D10*
X28900Y403750D02*
G03*
X28900Y403750I-1000J0D01*
G01*
X323000Y590000D02*
G03*
X323000Y590000I-28000J0D01*
G01*
X58000D02*
G03*
X58000Y590000I-28000J0D01*
G01*
X323000Y30000D02*
G03*
X323000Y30000I-28000J0D01*
G01*
X58000D02*
G03*
X58000Y30000I-28000J0D01*
G01*
X245000Y141555D02*
Y170555D01*
X87450Y119950D02*
X192050D01*
Y93050D02*
Y119950D01*
X87450Y93050D02*
X192050D01*
X87450D02*
Y119950D01*
X272792Y427750D02*
X301793D01*
X231750D02*
X260750D01*
X271179Y220814D02*
X283806D01*
X271179Y208186D02*
X283806D01*
X208255Y215250D02*
X215245D01*
Y208250D02*
Y215250D01*
X185245D02*
X192235D01*
X185245Y208250D02*
Y215250D01*
X191300Y31557D02*
Y58457D01*
X86700D02*
X191300D01*
X86700Y31557D02*
Y58457D01*
Y31557D02*
X191300D01*
X190500Y427500D02*
X219500D01*
X136400Y333107D02*
Y360008D01*
X82600D02*
X136400D01*
X82600Y333107D02*
Y360008D01*
Y333107D02*
X136400D01*
X151943Y178500D02*
X157943D01*
X151943D02*
Y207500D01*
X157943D01*
Y178500D02*
Y207500D01*
X161443Y177000D02*
X173443D01*
X8300Y356400D02*
X35200D01*
X8300Y302600D02*
Y356400D01*
Y302600D02*
X35200D01*
Y356400D01*
X291599Y228450D02*
X318499D01*
X291599Y200050D02*
Y228450D01*
Y200050D02*
X318499D01*
Y228450D01*
D11*
X266742Y214500D02*
G03*
X266742Y214500I-1250J0D01*
G01*
X182485Y199400D02*
G03*
X182485Y199400I-1250J0D01*
G01*
D12*
X14330Y440330D02*
Y457250D01*
X118470Y440330D02*
Y457250D01*
X14330Y440330D02*
X118470D01*
X93189Y321564D02*
X99187D01*
X96188Y318565D02*
Y324564D01*
D13*
X93500Y196500D02*
X118900D01*
Y171100D02*
Y196500D01*
X93500Y171100D02*
X118900D01*
X93500D02*
Y196500D01*
X17300Y272700D02*
X42700D01*
Y247300D02*
Y272700D01*
X17300Y247300D02*
X42700D01*
X17300D02*
Y272700D01*
Y196500D02*
X42700D01*
Y171100D02*
Y196500D01*
X17300Y171100D02*
X42700D01*
X17300D02*
Y196500D01*
X93500Y272700D02*
X118900D01*
Y247300D02*
Y272700D01*
X93500Y247300D02*
X118900D01*
X93500D02*
Y272700D01*
X259902Y252200D02*
X263234D01*
X261568D01*
Y247202D01*
X264900D02*
Y252200D01*
X267400D01*
X268233Y251367D01*
Y249701D01*
X267400Y248868D01*
X264900D01*
X272398Y247202D02*
Y252200D01*
X269899Y249701D01*
X273231D01*
X228499Y132664D02*
X226833D01*
X226000Y131831D01*
Y128499D01*
X226833Y127666D01*
X228499D01*
X229332Y128499D01*
Y131831D01*
X228499Y132664D01*
X230998Y126000D02*
Y130998D01*
X233498D01*
X234331Y130165D01*
Y128499D01*
X233498Y127666D01*
X230998D01*
X236830Y131831D02*
Y130998D01*
X235997D01*
X237663D01*
X236830D01*
Y128499D01*
X237663Y127666D01*
X240162D02*
X241828D01*
X240995D01*
Y130998D01*
X240162D01*
X245160Y127666D02*
X246827D01*
X247660Y128499D01*
Y130165D01*
X246827Y130998D01*
X245160D01*
X244327Y130165D01*
Y128499D01*
X245160Y127666D01*
X249326D02*
Y130998D01*
X251825D01*
X252658Y130165D01*
Y127666D01*
X255157Y130998D02*
X256823D01*
X257656Y130165D01*
Y127666D01*
X255157D01*
X254324Y128499D01*
X255157Y129332D01*
X257656D01*
X259322Y127666D02*
X260989D01*
X260156D01*
Y132664D01*
X259322D01*
X253499Y497664D02*
X251833D01*
X251000Y496831D01*
Y493499D01*
X251833Y492666D01*
X253499D01*
X254332Y493499D01*
Y496831D01*
X253499Y497664D01*
X255998Y491000D02*
Y495998D01*
X258498D01*
X259331Y495165D01*
Y493499D01*
X258498Y492666D01*
X255998D01*
X261830Y496831D02*
Y495998D01*
X260997D01*
X262663D01*
X261830D01*
Y493499D01*
X262663Y492666D01*
X265162D02*
X266828D01*
X265995D01*
Y495998D01*
X265162D01*
X270160Y492666D02*
X271827D01*
X272660Y493499D01*
Y495165D01*
X271827Y495998D01*
X270160D01*
X269327Y495165D01*
Y493499D01*
X270160Y492666D01*
X274326D02*
Y495998D01*
X276825D01*
X277658Y495165D01*
Y492666D01*
X280157Y495998D02*
X281823D01*
X282656Y495165D01*
Y492666D01*
X280157D01*
X279324Y493499D01*
X280157Y494332D01*
X282656D01*
X284322Y492666D02*
X285989D01*
X285156D01*
Y497664D01*
X284322D01*
X98499Y206831D02*
X96833D01*
X96000Y205998D01*
Y202666D01*
X96833Y201833D01*
X98499D01*
X99332Y202666D01*
Y205998D01*
X98499Y206831D01*
X100998Y201833D02*
X103497D01*
X104331Y202666D01*
X103497Y203499D01*
X101831D01*
X100998Y204332D01*
X101831Y205165D01*
X104331D01*
X109329D02*
X106830D01*
X105997Y204332D01*
Y202666D01*
X106830Y201833D01*
X109329D01*
X110995Y201000D02*
X114327D01*
X116826Y201833D02*
X118493D01*
X119326Y202666D01*
Y204332D01*
X118493Y205165D01*
X116826D01*
X115993Y204332D01*
Y202666D01*
X116826Y201833D01*
X120992Y205165D02*
Y202666D01*
X121825Y201833D01*
X124324D01*
Y205165D01*
X126823Y205998D02*
Y205165D01*
X125990D01*
X127656D01*
X126823D01*
Y202666D01*
X127656Y201833D01*
X104332Y285998D02*
X101000D01*
Y283499D01*
X102666Y284332D01*
X103499D01*
X104332Y283499D01*
Y281833D01*
X103499Y281000D01*
X101833D01*
X101000Y281833D01*
X105998Y285998D02*
Y282666D01*
X107664Y281000D01*
X109331Y282666D01*
Y285998D01*
X29332Y155165D02*
X28499Y155998D01*
X26833D01*
X26000Y155165D01*
Y151833D01*
X26833Y151000D01*
X28499D01*
X29332Y151833D01*
Y153499D01*
X27666D01*
X30998Y151000D02*
Y155998D01*
X34331Y151000D01*
Y155998D01*
X35997D02*
Y151000D01*
X38496D01*
X39329Y151833D01*
Y155165D01*
X38496Y155998D01*
X35997D01*
X260835Y182501D02*
Y187499D01*
X263334D01*
X264167Y186666D01*
Y185000D01*
X263334Y184167D01*
X260835D01*
X262501D02*
X264167Y182501D01*
X265833Y183334D02*
X266666Y182501D01*
X268332D01*
X269165Y183334D01*
Y186666D01*
X268332Y187499D01*
X266666D01*
X265833Y186666D01*
Y185833D01*
X266666Y185000D01*
X269165D01*
X216000Y26000D02*
Y30998D01*
X217666Y29332D01*
X219332Y30998D01*
Y26000D01*
X220998Y30165D02*
X221831Y30998D01*
X223498D01*
X224331Y30165D01*
Y29332D01*
X223498Y28499D01*
X222665D01*
X223498D01*
X224331Y27666D01*
Y26833D01*
X223498Y26000D01*
X221831D01*
X220998Y26833D01*
X234327Y30165D02*
X233494Y30998D01*
X231828D01*
X230995Y30165D01*
Y29332D01*
X231828Y28499D01*
X233494D01*
X234327Y27666D01*
Y26833D01*
X233494Y26000D01*
X231828D01*
X230995Y26833D01*
X236827Y30165D02*
Y29332D01*
X235993D01*
X237660D01*
X236827D01*
Y26833D01*
X237660Y26000D01*
X240992Y29332D02*
X242658D01*
X243491Y28499D01*
Y26000D01*
X240992D01*
X240159Y26833D01*
X240992Y27666D01*
X243491D01*
X245157Y26000D02*
Y29332D01*
X247656D01*
X248489Y28499D01*
Y26000D01*
X253488Y30998D02*
Y26000D01*
X250989D01*
X250156Y26833D01*
Y28499D01*
X250989Y29332D01*
X253488D01*
X76000Y21000D02*
Y25998D01*
X77666Y24332D01*
X79332Y25998D01*
Y21000D01*
X80998Y25165D02*
X81831Y25998D01*
X83497D01*
X84331Y25165D01*
Y24332D01*
X83497Y23499D01*
X82664D01*
X83497D01*
X84331Y22666D01*
Y21833D01*
X83497Y21000D01*
X81831D01*
X80998Y21833D01*
X94327Y25165D02*
X93494Y25998D01*
X91828D01*
X90995Y25165D01*
Y24332D01*
X91828Y23499D01*
X93494D01*
X94327Y22666D01*
Y21833D01*
X93494Y21000D01*
X91828D01*
X90995Y21833D01*
X96826Y25165D02*
Y24332D01*
X95993D01*
X97660D01*
X96826D01*
Y21833D01*
X97660Y21000D01*
X100992Y24332D02*
X102658D01*
X103491Y23499D01*
Y21000D01*
X100992D01*
X100159Y21833D01*
X100992Y22666D01*
X103491D01*
X105157Y21000D02*
Y24332D01*
X107656D01*
X108489Y23499D01*
Y21000D01*
X113488Y25998D02*
Y21000D01*
X110989D01*
X110155Y21833D01*
Y23499D01*
X110989Y24332D01*
X113488D01*
X221000Y581000D02*
Y585998D01*
X222666Y584332D01*
X224332Y585998D01*
Y581000D01*
X225998Y585165D02*
X226831Y585998D01*
X228498D01*
X229331Y585165D01*
Y584332D01*
X228498Y583499D01*
X227665D01*
X228498D01*
X229331Y582666D01*
Y581833D01*
X228498Y581000D01*
X226831D01*
X225998Y581833D01*
X239327Y585165D02*
X238494Y585998D01*
X236828D01*
X235995Y585165D01*
Y584332D01*
X236828Y583499D01*
X238494D01*
X239327Y582666D01*
Y581833D01*
X238494Y581000D01*
X236828D01*
X235995Y581833D01*
X241826Y585165D02*
Y584332D01*
X240993D01*
X242660D01*
X241826D01*
Y581833D01*
X242660Y581000D01*
X245992Y584332D02*
X247658D01*
X248491Y583499D01*
Y581000D01*
X245992D01*
X245159Y581833D01*
X245992Y582666D01*
X248491D01*
X250157Y581000D02*
Y584332D01*
X252656D01*
X253489Y583499D01*
Y581000D01*
X258488Y585998D02*
Y581000D01*
X255989D01*
X255156Y581833D01*
Y583499D01*
X255989Y584332D01*
X258488D01*
X71000Y586000D02*
Y590998D01*
X72666Y589332D01*
X74332Y590998D01*
Y586000D01*
X75998Y590165D02*
X76831Y590998D01*
X78498D01*
X79331Y590165D01*
Y589332D01*
X78498Y588499D01*
X77664D01*
X78498D01*
X79331Y587666D01*
Y586833D01*
X78498Y586000D01*
X76831D01*
X75998Y586833D01*
X89327Y590165D02*
X88494Y590998D01*
X86828D01*
X85995Y590165D01*
Y589332D01*
X86828Y588499D01*
X88494D01*
X89327Y587666D01*
Y586833D01*
X88494Y586000D01*
X86828D01*
X85995Y586833D01*
X91826Y590165D02*
Y589332D01*
X90993D01*
X92660D01*
X91826D01*
Y586833D01*
X92660Y586000D01*
X95992Y589332D02*
X97658D01*
X98491Y588499D01*
Y586000D01*
X95992D01*
X95159Y586833D01*
X95992Y587666D01*
X98491D01*
X100157Y586000D02*
Y589332D01*
X102656D01*
X103489Y588499D01*
Y586000D01*
X108488Y590998D02*
Y586000D01*
X105989D01*
X105155Y586833D01*
Y588499D01*
X105989Y589332D01*
X108488D01*
X164332Y150998D02*
X161000D01*
Y148499D01*
X162666Y149332D01*
X163499D01*
X164332Y148499D01*
Y146833D01*
X163499Y146000D01*
X161833D01*
X161000Y146833D01*
X165998Y150998D02*
Y147666D01*
X167665Y146000D01*
X169331Y147666D01*
Y150998D01*
X85835Y137501D02*
Y142499D01*
X88334D01*
X89167Y141666D01*
Y140000D01*
X88334Y139167D01*
X85835D01*
X94165Y137501D02*
X90833D01*
X94165Y140833D01*
Y141666D01*
X93332Y142499D01*
X91666D01*
X90833Y141666D01*
X106000Y150998D02*
Y147666D01*
X107666Y146000D01*
X109332Y147666D01*
Y150998D01*
X114331D02*
Y146000D01*
X111831D01*
X110998Y146833D01*
Y148499D01*
X111831Y149332D01*
X114331D01*
X119329Y150998D02*
Y146000D01*
X116830D01*
X115997Y146833D01*
Y148499D01*
X116830Y149332D01*
X119329D01*
X296000Y190998D02*
Y187666D01*
X297666Y186000D01*
X299332Y187666D01*
Y190998D01*
X301831Y186000D02*
X303498D01*
X304331Y186833D01*
Y188499D01*
X303498Y189332D01*
X301831D01*
X300998Y188499D01*
Y186833D01*
X301831Y186000D01*
X305997Y189332D02*
Y186833D01*
X306830Y186000D01*
X309329D01*
Y189332D01*
X311828Y190165D02*
Y189332D01*
X310995D01*
X312661D01*
X311828D01*
Y186833D01*
X312661Y186000D01*
X122336Y379332D02*
Y376000D01*
X124835D01*
X124002Y377666D01*
Y378499D01*
X124835Y379332D01*
X126501D01*
X127334Y378499D01*
Y376833D01*
X126501Y376000D01*
X122336Y380998D02*
X125668D01*
X127334Y382664D01*
X125668Y384331D01*
X122336D01*
Y390995D02*
X127334D01*
Y394327D01*
X122336Y395993D02*
X127334D01*
Y398493D01*
X126501Y399326D01*
X123169D01*
X122336Y398493D01*
Y395993D01*
Y403491D02*
Y401825D01*
X123169Y400992D01*
X126501D01*
X127334Y401825D01*
Y403491D01*
X126501Y404324D01*
X123169D01*
X122336Y403491D01*
Y413488D02*
Y411822D01*
X123169Y410989D01*
X126501D01*
X127334Y411822D01*
Y413488D01*
X126501Y414321D01*
X123169D01*
X122336Y413488D01*
X124002Y415987D02*
X126501D01*
X127334Y416820D01*
Y419319D01*
X124002D01*
X123169Y421818D02*
X124002D01*
Y420985D01*
Y422651D01*
Y421818D01*
X126501D01*
X127334Y422651D01*
X129000Y425151D02*
X124002D01*
Y427650D01*
X124835Y428483D01*
X126501D01*
X127334Y427650D01*
Y425151D01*
X124002Y430149D02*
X126501D01*
X127334Y430982D01*
Y433481D01*
X124002D01*
X123169Y435980D02*
X124002D01*
Y435147D01*
Y436814D01*
Y435980D01*
X126501D01*
X127334Y436814D01*
X66000Y306833D02*
Y311831D01*
X68499D01*
X69332Y310998D01*
Y309332D01*
X68499Y308499D01*
X66000D01*
X70998Y311831D02*
Y306833D01*
X72664Y308499D01*
X74331Y306833D01*
Y311831D01*
X75997Y306833D02*
Y311831D01*
X78496D01*
X79329Y310998D01*
Y309332D01*
X78496Y308499D01*
X75997D01*
X77663D02*
X79329Y306833D01*
X80995Y306000D02*
X84327D01*
X88493Y311831D02*
X86826D01*
X85993Y310998D01*
Y307666D01*
X86826Y306833D01*
X88493D01*
X89326Y307666D01*
Y310998D01*
X88493Y311831D01*
X90992D02*
Y306833D01*
Y308499D01*
X94324Y311831D01*
X91825Y309332D01*
X94324Y306833D01*
X144332Y350998D02*
X141000D01*
Y348499D01*
X142666Y349332D01*
X143499D01*
X144332Y348499D01*
Y346833D01*
X143499Y346000D01*
X141833D01*
X141000Y346833D01*
X145998Y350998D02*
Y347666D01*
X147664Y346000D01*
X149331Y347666D01*
Y350998D01*
X159327D02*
X155995D01*
Y346000D01*
X159327D01*
X155995Y348499D02*
X157661D01*
X160993Y346000D02*
Y349332D01*
X163493D01*
X164326Y348499D01*
Y346000D01*
X166825Y349332D02*
X168491D01*
X169324Y348499D01*
Y346000D01*
X166825D01*
X165992Y346833D01*
X166825Y347666D01*
X169324D01*
X170990Y350998D02*
Y346000D01*
X173489D01*
X174322Y346833D01*
Y347666D01*
Y348499D01*
X173489Y349332D01*
X170990D01*
X175989Y346000D02*
X177655D01*
X176822D01*
Y350998D01*
X175989D01*
X182653Y346000D02*
X180987D01*
X180154Y346833D01*
Y348499D01*
X180987Y349332D01*
X182653D01*
X183486Y348499D01*
Y347666D01*
X180154D01*
X41000Y345998D02*
Y342666D01*
X42666Y341000D01*
X44332Y342666D01*
Y345998D01*
X45998Y341000D02*
X47664D01*
X46831D01*
Y344332D01*
X45998D01*
X50164Y341000D02*
Y344332D01*
X52663D01*
X53496Y343499D01*
Y341000D01*
X4002Y376000D02*
X7334D01*
X9000Y377666D01*
X7334Y379332D01*
X4002D01*
X9000Y380998D02*
Y382664D01*
Y381831D01*
X5668D01*
Y380998D01*
X9000Y385164D02*
X5668D01*
Y387663D01*
X6501Y388496D01*
X9000D01*
Y395160D02*
X6501Y397660D01*
X4002Y395160D01*
X7334Y399326D02*
Y402658D01*
X5668Y399326D02*
Y402658D01*
X4002Y412655D02*
X4835Y410989D01*
X6501Y409323D01*
X8167D01*
X9000Y410155D01*
Y411822D01*
X8167Y412655D01*
X7334D01*
X6501Y411822D01*
Y409323D01*
X4002Y414321D02*
X7334D01*
X9000Y415987D01*
X7334Y417653D01*
X4002D01*
X44332Y315165D02*
X43499Y315998D01*
X41833D01*
X41000Y315165D01*
Y311833D01*
X41833Y311000D01*
X43499D01*
X44332Y311833D01*
Y313499D01*
X42666D01*
X45998Y311000D02*
Y315998D01*
X49331Y311000D01*
Y315998D01*
X50997D02*
Y311000D01*
X53496D01*
X54329Y311833D01*
Y315165D01*
X53496Y315998D01*
X50997D01*
X65002Y563999D02*
X66668D01*
X65835D01*
Y559001D01*
X65002D01*
X66668D01*
X72500Y563166D02*
X71666Y563999D01*
X70000D01*
X69167Y563166D01*
Y559834D01*
X70000Y559001D01*
X71666D01*
X72500Y559834D01*
X77498Y559001D02*
X74166D01*
X77498Y562333D01*
Y563166D01*
X76665Y563999D01*
X74999D01*
X74166Y563166D01*
X113336Y162499D02*
X116668D01*
X115002D01*
Y157501D01*
X118334D02*
Y162499D01*
X120833D01*
X121666Y161666D01*
Y160000D01*
X120833Y159167D01*
X118334D01*
X123332Y161666D02*
X124165Y162499D01*
X125831D01*
X126664Y161666D01*
Y160833D01*
X125831Y160000D01*
X124998D01*
X125831D01*
X126664Y159167D01*
Y158334D01*
X125831Y157501D01*
X124165D01*
X123332Y158334D01*
X235835Y182501D02*
Y187499D01*
X238334D01*
X239167Y186666D01*
Y185000D01*
X238334Y184167D01*
X235835D01*
X237501D02*
X239167Y182501D01*
X240833Y186666D02*
X241666Y187499D01*
X243332D01*
X244165Y186666D01*
Y185833D01*
X243332Y185000D01*
X244165Y184167D01*
Y183334D01*
X243332Y182501D01*
X241666D01*
X240833Y183334D01*
Y184167D01*
X241666Y185000D01*
X240833Y185833D01*
Y186666D01*
X241666Y185000D02*
X243332D01*
X281238Y373948D02*
Y378946D01*
X283737D01*
X284570Y378113D01*
Y376447D01*
X283737Y375614D01*
X281238D01*
X282904D02*
X284570Y373948D01*
X286236Y378946D02*
X289569D01*
Y378113D01*
X286236Y374781D01*
Y373948D01*
X240852Y373694D02*
Y378692D01*
X243351D01*
X244184Y377859D01*
Y376193D01*
X243351Y375360D01*
X240852D01*
X242518D02*
X244184Y373694D01*
X249183Y378692D02*
X247516Y377859D01*
X245850Y376193D01*
Y374527D01*
X246683Y373694D01*
X248349D01*
X249183Y374527D01*
Y375360D01*
X248349Y376193D01*
X245850D01*
X199450Y373694D02*
Y378692D01*
X201949D01*
X202782Y377859D01*
Y376193D01*
X201949Y375360D01*
X199450D01*
X201116D02*
X202782Y373694D01*
X207781Y378692D02*
X204448D01*
Y376193D01*
X206115Y377026D01*
X206947D01*
X207781Y376193D01*
Y374527D01*
X206947Y373694D01*
X205281D01*
X204448Y374527D01*
X281585Y475501D02*
Y480499D01*
X284084D01*
X284917Y479666D01*
Y478000D01*
X284084Y477167D01*
X281585D01*
X283251D02*
X284917Y475501D01*
X289082D02*
Y480499D01*
X286583Y478000D01*
X289915D01*
X241085Y475751D02*
Y480749D01*
X243584D01*
X244417Y479916D01*
Y478250D01*
X243584Y477417D01*
X241085D01*
X242751D02*
X244417Y475751D01*
X246083Y479916D02*
X246916Y480749D01*
X248582D01*
X249415Y479916D01*
Y479083D01*
X248582Y478250D01*
X247749D01*
X248582D01*
X249415Y477417D01*
Y476584D01*
X248582Y475751D01*
X246916D01*
X246083Y476584D01*
X78085Y67501D02*
Y72499D01*
X80584D01*
X81417Y71666D01*
Y70000D01*
X80584Y69167D01*
X78085D01*
X86415Y72499D02*
X83083D01*
Y70000D01*
X84749Y70833D01*
X85582D01*
X86415Y70000D01*
Y68334D01*
X85582Y67501D01*
X83916D01*
X83083Y68334D01*
X188335Y172499D02*
X191668D01*
X190002D01*
Y167501D01*
X193334D02*
Y172499D01*
X195833D01*
X196666Y171666D01*
Y170000D01*
X195833Y169167D01*
X193334D01*
X201665Y167501D02*
X198332D01*
X201665Y170833D01*
Y171666D01*
X200831Y172499D01*
X199165D01*
X198332Y171666D01*
X235518Y264138D02*
X238850D01*
X237184D01*
Y259140D01*
X240516D02*
Y264138D01*
X243015D01*
X243849Y263305D01*
Y261639D01*
X243015Y260806D01*
X240516D01*
X245515Y259140D02*
X247181D01*
X246348D01*
Y264138D01*
X245515Y263305D01*
X111335Y305501D02*
Y310499D01*
X113834D01*
X114667Y309666D01*
Y308000D01*
X113834Y307167D01*
X111335D01*
X113001D02*
X114667Y305501D01*
X119665D02*
X116333D01*
X119665Y308833D01*
Y309666D01*
X118832Y310499D01*
X117166D01*
X116333Y309666D01*
X202168Y474751D02*
Y479749D01*
X204667D01*
X205500Y478916D01*
Y477250D01*
X204667Y476417D01*
X202168D01*
X203834D02*
X205500Y474751D01*
X207166D02*
X208832D01*
X207999D01*
Y479749D01*
X207166Y478916D01*
X141585Y367251D02*
Y372249D01*
X144084D01*
X144917Y371416D01*
Y369750D01*
X144084Y368917D01*
X141585D01*
X149082Y367251D02*
Y372249D01*
X146583Y369750D01*
X149915D01*
X290382Y236788D02*
Y241786D01*
X292881D01*
X293714Y240953D01*
Y239287D01*
X292881Y238454D01*
X290382D01*
X295380Y240953D02*
X296213Y241786D01*
X297880D01*
X298713Y240953D01*
Y240120D01*
X297880Y239287D01*
X297047D01*
X297880D01*
X298713Y238454D01*
Y237621D01*
X297880Y236788D01*
X296213D01*
X295380Y237621D01*
X7172Y364804D02*
Y369802D01*
X9671D01*
X10504Y368969D01*
Y367303D01*
X9671Y366470D01*
X7172D01*
X12170Y364804D02*
X13836D01*
X13003D01*
Y369802D01*
X12170Y368969D01*
X171168Y216001D02*
Y220999D01*
X172834Y219333D01*
X174500Y220999D01*
Y216001D01*
X176166D02*
X177832D01*
X176999D01*
Y220999D01*
X176166Y220166D01*
X275835Y232499D02*
Y227501D01*
X279167D01*
X284165D02*
X280833D01*
X284165Y230833D01*
Y231666D01*
X283332Y232499D01*
X281666D01*
X280833Y231666D01*
X165168Y332499D02*
Y327501D01*
X168500D01*
X170166D02*
X171832D01*
X170999D01*
Y332499D01*
X170166Y331666D01*
X12167Y293749D02*
X10501D01*
X11334D01*
Y289584D01*
X10501Y288751D01*
X9668D01*
X8835Y289584D01*
X16332Y288751D02*
Y293749D01*
X13833Y291250D01*
X17165D01*
X85688Y296142D02*
X84022D01*
X84855D01*
Y291977D01*
X84022Y291144D01*
X83189D01*
X82356Y291977D01*
X87354Y295309D02*
X88187Y296142D01*
X89853D01*
X90687Y295309D01*
Y294476D01*
X89853Y293643D01*
X89021D01*
X89853D01*
X90687Y292810D01*
Y291977D01*
X89853Y291144D01*
X88187D01*
X87354Y291977D01*
X9488Y219942D02*
X7822D01*
X8655D01*
Y215777D01*
X7822Y214944D01*
X6989D01*
X6156Y215777D01*
X14487Y214944D02*
X11154D01*
X14487Y218276D01*
Y219109D01*
X13654Y219942D01*
X11987D01*
X11154Y219109D01*
X82750Y206499D02*
X81084D01*
X81917D01*
Y202334D01*
X81084Y201501D01*
X80251D01*
X79418Y202334D01*
X84416Y201501D02*
X86082D01*
X85249D01*
Y206499D01*
X84416Y205666D01*
X134680Y221974D02*
X136346D01*
X135513D01*
Y216976D01*
X134680D01*
X136346D01*
X142178Y221141D02*
X141344Y221974D01*
X139678D01*
X138845Y221141D01*
Y217809D01*
X139678Y216976D01*
X141344D01*
X142178Y217809D01*
X143844Y216976D02*
X145510D01*
X144677D01*
Y221974D01*
X143844Y221141D01*
X68335Y614999D02*
Y610001D01*
Y612500D01*
X71667D01*
Y614999D01*
Y610001D01*
X75832D02*
Y614999D01*
X73333Y612500D01*
X76665D01*
X10335Y72999D02*
Y68001D01*
Y70500D01*
X13667D01*
Y72999D01*
Y68001D01*
X15333Y72166D02*
X16166Y72999D01*
X17832D01*
X18665Y72166D01*
Y71333D01*
X17832Y70500D01*
X16999D01*
X17832D01*
X18665Y69667D01*
Y68834D01*
X17832Y68001D01*
X16166D01*
X15333Y68834D01*
X250835Y614999D02*
Y610001D01*
Y612500D01*
X254167D01*
Y614999D01*
Y610001D01*
X259165D02*
X255833D01*
X259165Y613333D01*
Y614166D01*
X258332Y614999D01*
X256666D01*
X255833Y614166D01*
X262418Y68749D02*
Y63751D01*
Y66250D01*
X265750D01*
Y68749D01*
Y63751D01*
X267416D02*
X269082D01*
X268249D01*
Y68749D01*
X267416Y67916D01*
X64830Y339322D02*
Y334324D01*
X67329D01*
X68162Y335157D01*
Y338489D01*
X67329Y339322D01*
X64830D01*
X69828Y334324D02*
X71494D01*
X70661D01*
Y339322D01*
X69828Y338489D01*
X52167Y359166D02*
X51334Y359999D01*
X49668D01*
X48835Y359166D01*
Y355834D01*
X49668Y355001D01*
X51334D01*
X52167Y355834D01*
X53833D02*
X54666Y355001D01*
X56332D01*
X57165Y355834D01*
Y359166D01*
X56332Y359999D01*
X54666D01*
X53833Y359166D01*
Y358333D01*
X54666Y357500D01*
X57165D01*
X104167Y373166D02*
X103334Y373999D01*
X101668D01*
X100835Y373166D01*
Y369834D01*
X101668Y369001D01*
X103334D01*
X104167Y369834D01*
X105833Y373166D02*
X106666Y373999D01*
X108332D01*
X109165Y373166D01*
Y372333D01*
X108332Y371500D01*
X109165Y370667D01*
Y369834D01*
X108332Y369001D01*
X106666D01*
X105833Y369834D01*
Y370667D01*
X106666Y371500D01*
X105833Y372333D01*
Y373166D01*
X106666Y371500D02*
X108332D01*
X239167Y201666D02*
X238334Y202499D01*
X236668D01*
X235835Y201666D01*
Y198334D01*
X236668Y197501D01*
X238334D01*
X239167Y198334D01*
X240833Y202499D02*
X244165D01*
Y201666D01*
X240833Y198334D01*
Y197501D01*
X183417Y82666D02*
X182584Y83499D01*
X180918D01*
X180085Y82666D01*
Y79334D01*
X180918Y78501D01*
X182584D01*
X183417Y79334D01*
X188415Y83499D02*
X186749Y82666D01*
X185083Y81000D01*
Y79334D01*
X185916Y78501D01*
X187582D01*
X188415Y79334D01*
Y80167D01*
X187582Y81000D01*
X185083D01*
X255667Y201416D02*
X254834Y202249D01*
X253168D01*
X252335Y201416D01*
Y198084D01*
X253168Y197251D01*
X254834D01*
X255667Y198084D01*
X260665Y202249D02*
X257333D01*
Y199750D01*
X258999Y200583D01*
X259832D01*
X260665Y199750D01*
Y198084D01*
X259832Y197251D01*
X258166D01*
X257333Y198084D01*
X130417Y79166D02*
X129584Y79999D01*
X127918D01*
X127085Y79166D01*
Y75834D01*
X127918Y75001D01*
X129584D01*
X130417Y75834D01*
X134582Y75001D02*
Y79999D01*
X132083Y77500D01*
X135415D01*
X174909Y458666D02*
X174076Y459499D01*
X172410D01*
X171577Y458666D01*
Y455334D01*
X172410Y454501D01*
X174076D01*
X174909Y455334D01*
X176576Y458666D02*
X177409Y459499D01*
X179075D01*
X179908Y458666D01*
Y457833D01*
X179075Y457000D01*
X178242D01*
X179075D01*
X179908Y456167D01*
Y455334D01*
X179075Y454501D01*
X177409D01*
X176576Y455334D01*
X73917Y226666D02*
X73084Y227499D01*
X71418D01*
X70585Y226666D01*
Y223334D01*
X71418Y222501D01*
X73084D01*
X73917Y223334D01*
X78915Y222501D02*
X75583D01*
X78915Y225833D01*
Y226666D01*
X78082Y227499D01*
X76416D01*
X75583Y226666D01*
X175000Y166666D02*
X174167Y167499D01*
X172501D01*
X171668Y166666D01*
Y163334D01*
X172501Y162501D01*
X174167D01*
X175000Y163334D01*
X176666Y162501D02*
X178332D01*
X177499D01*
Y167499D01*
X176666Y166666D01*
M02*
