G04*
G04 #@! TF.GenerationSoftware,Altium Limited,Altium Designer,21.6.4 (81)*
G04*
G04 Layer_Color=32896*
%FSLAX44Y44*%
%MOMM*%
G71*
G04*
G04 #@! TF.SameCoordinates,CE7750B5-B6F3-47FA-9723-5704EF157F2E*
G04*
G04*
G04 #@! TF.FilePolarity,Positive*
G04*
G01*
G75*
%ADD10C,0.2000*%
%ADD13C,0.1000*%
G36*
X239544Y388608D02*
X241576D01*
Y386576D01*
X251736D01*
Y384544D01*
Y382512D01*
Y380480D01*
X249704D01*
Y378448D01*
X243608D01*
Y376416D01*
Y374384D01*
X245640D01*
Y372352D01*
Y370320D01*
X243608D01*
Y372352D01*
Y374384D01*
X239544D01*
Y372352D01*
X237512D01*
Y374384D01*
Y376416D01*
Y378448D01*
X235480D01*
Y380480D01*
Y382512D01*
Y384544D01*
Y386576D01*
Y388608D01*
Y390640D01*
X239544D01*
Y388608D01*
D02*
G37*
G36*
X235480Y368288D02*
Y366256D01*
Y364224D01*
Y362192D01*
Y360160D01*
Y358128D01*
Y356096D01*
Y354064D01*
X237512D01*
Y352032D01*
X235480D01*
Y354064D01*
X233448D01*
Y352032D01*
X235480D01*
Y350000D01*
X233448D01*
Y352032D01*
X231416D01*
Y350000D01*
X205000D01*
Y352032D01*
Y354064D01*
Y356096D01*
X207032D01*
Y358128D01*
X211096D01*
Y360160D01*
X215160D01*
Y362192D01*
X219224D01*
Y364224D01*
X225320D01*
Y366256D01*
X229384D01*
Y368288D01*
X233448D01*
Y370320D01*
X235480D01*
Y368288D01*
D02*
G37*
G36*
X272056Y380480D02*
Y378448D01*
X274088D01*
Y376416D01*
X278152D01*
Y374384D01*
X280184D01*
Y372352D01*
X284248D01*
Y370320D01*
X290344D01*
Y368288D01*
Y366256D01*
Y364224D01*
Y362192D01*
Y360160D01*
Y358128D01*
Y356096D01*
Y354064D01*
Y352032D01*
Y350000D01*
X259864D01*
Y352032D01*
X261896D01*
Y354064D01*
Y356096D01*
Y358128D01*
X263928D01*
Y360160D01*
Y362192D01*
X265960D01*
Y364224D01*
X267992D01*
Y366256D01*
Y368288D01*
Y370320D01*
X270024D01*
Y372352D01*
Y374384D01*
X272056D01*
Y376416D01*
Y378448D01*
X270024D01*
Y380480D01*
Y382512D01*
X272056D01*
Y380480D01*
D02*
G37*
G36*
X249704Y362192D02*
X251736D01*
Y360160D01*
X253768D01*
Y358128D01*
X255800D01*
Y356096D01*
X253768D01*
Y354064D01*
X249704D01*
Y352032D01*
X247672D01*
Y350000D01*
X239544D01*
Y352032D01*
Y354064D01*
X241576D01*
Y356096D01*
X237512D01*
Y358128D01*
X239544D01*
Y360160D01*
Y362192D01*
X241576D01*
Y364224D01*
X249704D01*
Y362192D01*
D02*
G37*
G36*
X251736Y451600D02*
X257832D01*
Y449568D01*
X261896D01*
Y447536D01*
X265960D01*
Y445504D01*
X267992D01*
Y443472D01*
X270024D01*
Y441440D01*
X272056D01*
Y439408D01*
X274088D01*
Y437376D01*
Y435344D01*
X276120D01*
Y433312D01*
Y431280D01*
Y429248D01*
Y427216D01*
X278152D01*
Y425184D01*
Y423152D01*
Y421120D01*
Y419088D01*
Y417056D01*
Y415024D01*
X276120D01*
Y412992D01*
Y410960D01*
X278152D01*
Y408928D01*
Y406896D01*
Y404864D01*
X276120D01*
Y406896D01*
Y408928D01*
Y410960D01*
X274088D01*
Y412992D01*
X272056D01*
Y410960D01*
Y408928D01*
Y406896D01*
X270024D01*
Y408928D01*
Y410960D01*
Y412992D01*
Y415024D01*
X272056D01*
Y417056D01*
X270024D01*
Y419088D01*
Y421120D01*
X267992D01*
Y423152D01*
Y425184D01*
Y427216D01*
X263928D01*
Y429248D01*
X265960D01*
Y431280D01*
X263928D01*
Y433312D01*
Y435344D01*
X261896D01*
Y437376D01*
X259864D01*
Y439408D01*
X255800D01*
Y441440D01*
Y443472D01*
X253768D01*
Y441440D01*
X247672D01*
Y443472D01*
X239544D01*
Y441440D01*
X241576D01*
Y439408D01*
X237512D01*
Y437376D01*
X235480D01*
Y435344D01*
X233448D01*
Y433312D01*
Y431280D01*
X231416D01*
Y429248D01*
X233448D01*
Y427216D01*
Y425184D01*
X239544D01*
Y423152D01*
X235480D01*
Y421120D01*
X233448D01*
Y419088D01*
Y417056D01*
Y415024D01*
X231416D01*
Y412992D01*
X229384D01*
Y410960D01*
X227352D01*
Y408928D01*
Y406896D01*
Y404864D01*
X229384D01*
Y402832D01*
X227352D01*
Y404864D01*
X225320D01*
Y402832D01*
Y400800D01*
X227352D01*
Y398768D01*
X229384D01*
Y396736D01*
X231416D01*
Y394704D01*
Y392672D01*
X229384D01*
Y394704D01*
X227352D01*
Y396736D01*
X225320D01*
Y398768D01*
X223288D01*
Y400800D01*
Y402832D01*
X221256D01*
Y404864D01*
Y406896D01*
Y408928D01*
X223288D01*
Y410960D01*
Y412992D01*
Y415024D01*
Y417056D01*
Y419088D01*
X221256D01*
Y421120D01*
Y423152D01*
Y425184D01*
Y427216D01*
X223288D01*
Y429248D01*
Y431280D01*
Y433312D01*
Y435344D01*
X225320D01*
Y437376D01*
Y439408D01*
X229384D01*
Y441440D01*
Y443472D01*
X231416D01*
Y445504D01*
X233448D01*
Y447536D01*
X235480D01*
Y449568D01*
X237512D01*
Y451600D01*
X243608D01*
Y453632D01*
X245640D01*
Y451600D01*
X247672D01*
Y453632D01*
X251736D01*
Y451600D01*
D02*
G37*
G36*
X245640Y406896D02*
Y404864D01*
X241576D01*
Y406896D01*
X239544D01*
Y408928D01*
X241576D01*
Y406896D01*
X243608D01*
Y408928D01*
X245640D01*
Y406896D01*
D02*
G37*
G36*
X241576Y398768D02*
X245640D01*
Y396736D01*
X241576D01*
Y398768D01*
X239544D01*
Y400800D01*
X241576D01*
Y398768D01*
D02*
G37*
G36*
X276120Y396736D02*
Y394704D01*
X270024D01*
Y392672D01*
X267992D01*
Y394704D01*
Y396736D01*
X270024D01*
Y398768D01*
X276120D01*
Y396736D01*
D02*
G37*
%LPC*%
G36*
X231416Y419088D02*
X229384D01*
Y417056D01*
X231416D01*
Y419088D01*
D02*
G37*
%LPD*%
D10*
X325000Y590000D02*
G03*
X325000Y590000I-30000J0D01*
G01*
X60000D02*
G03*
X60000Y590000I-30000J0D01*
G01*
X325000Y30000D02*
G03*
X325000Y30000I-30000J0D01*
G01*
X60000D02*
G03*
X60000Y30000I-30000J0D01*
G01*
D13*
X270825Y330294D02*
Y325295D01*
X268326D01*
X267493Y326128D01*
Y326961D01*
X268326Y327794D01*
X270825D01*
X268326D01*
X267493Y328628D01*
Y329461D01*
X268326Y330294D01*
X270825D01*
X262494Y329461D02*
X263327Y330294D01*
X264993D01*
X265826Y329461D01*
Y326128D01*
X264993Y325295D01*
X263327D01*
X262494Y326128D01*
X260828Y325295D02*
Y330294D01*
X258329D01*
X257496Y329461D01*
Y327794D01*
X258329Y326961D01*
X260828D01*
X250831Y330294D02*
X247499D01*
X249165D01*
Y325295D01*
X245833Y330294D02*
X242501Y325295D01*
Y330294D02*
X245833Y325295D01*
X235836Y330294D02*
Y326961D01*
X234170Y325295D01*
X232504Y326961D01*
Y330294D01*
X230838Y325295D02*
X229172D01*
X230005D01*
Y330294D01*
X230838Y329461D01*
X226673Y325295D02*
Y326128D01*
X225840D01*
Y325295D01*
X226673D01*
X222507Y329461D02*
X221674Y330294D01*
X220008D01*
X219175Y329461D01*
Y326128D01*
X220008Y325295D01*
X221674D01*
X222507Y326128D01*
Y329461D01*
X299982Y321063D02*
Y316064D01*
X296650D01*
X294984D02*
X293318D01*
X294151D01*
Y319396D01*
X294984D01*
X290818Y316064D02*
Y319396D01*
X288319D01*
X287486Y318563D01*
Y316064D01*
X284154Y314398D02*
X283321D01*
X282488Y315231D01*
Y319396D01*
X284987D01*
X285820Y318563D01*
Y316897D01*
X284987Y316064D01*
X282488D01*
X280822D02*
Y321063D01*
Y317730D02*
X278322Y319396D01*
X280822Y317730D02*
X278322Y316064D01*
X273324D02*
X274990D01*
X275823Y316897D01*
Y318563D01*
X274990Y319396D01*
X273324D01*
X272491Y318563D01*
Y317730D01*
X275823D01*
X262494Y316064D02*
X263327Y316897D01*
X264160Y316064D01*
X264993D01*
X265826Y316897D01*
Y317730D01*
X264993Y318563D01*
X265826Y319396D01*
Y320229D01*
X264993Y321063D01*
X264160D01*
X263327Y320229D01*
Y319396D01*
X264160Y318563D01*
X263327Y317730D01*
Y316897D01*
X262494Y318563D02*
X263327Y317730D01*
X264993Y318563D02*
X264160D01*
X252498Y321063D02*
X254164D01*
X253331D01*
Y316897D01*
X254164Y316064D01*
X254997D01*
X255830Y316897D01*
X249998Y316064D02*
X248332D01*
X247499Y316897D01*
Y318563D01*
X248332Y319396D01*
X249998D01*
X250831Y318563D01*
Y316897D01*
X249998Y316064D01*
X245833D02*
Y319396D01*
X243334D01*
X242501Y318563D01*
Y316064D01*
X240002Y319396D02*
X238335D01*
X237502Y318563D01*
Y316064D01*
X240002D01*
X240835Y316897D01*
X240002Y317730D01*
X237502D01*
X235003Y320229D02*
Y319396D01*
X235836D01*
X234170D01*
X235003D01*
Y316897D01*
X234170Y316064D01*
X231671Y321063D02*
Y316064D01*
Y318563D01*
X230838Y319396D01*
X229172D01*
X228339Y318563D01*
Y316064D01*
X225840Y319396D02*
X224174D01*
X223340Y318563D01*
Y316064D01*
X225840D01*
X226673Y316897D01*
X225840Y317730D01*
X223340D01*
X221674Y316064D02*
Y319396D01*
X219175D01*
X218342Y318563D01*
Y316064D01*
X215843Y321896D02*
Y320229D01*
X216676Y319396D01*
X213344Y316064D02*
X210844D01*
X210011Y316897D01*
X210844Y317730D01*
X212511D01*
X213344Y318563D01*
X212511Y319396D01*
X210011D01*
X200015Y321063D02*
X203347D01*
Y318563D01*
X201681D01*
X203347D01*
Y316064D01*
X198349Y321063D02*
Y320229D01*
X196682Y318563D01*
X195016Y320229D01*
Y321063D01*
X196682Y318563D02*
Y316064D01*
X193350D02*
Y321063D01*
X190851D01*
X190018Y320229D01*
Y318563D01*
X190851Y317730D01*
X193350D01*
X269992Y306000D02*
X268326D01*
X269159D01*
Y310998D01*
X269992Y310165D01*
X265826Y306833D02*
X264993Y306000D01*
X263327D01*
X262494Y306833D01*
Y310165D01*
X263327Y310998D01*
X264993D01*
X265826Y310165D01*
Y309332D01*
X264993Y308499D01*
X262494D01*
X253331Y310998D02*
X254997D01*
X255830Y310165D01*
Y306833D01*
X254997Y306000D01*
X253331D01*
X252498Y306833D01*
Y310165D01*
X253331Y310998D01*
X247499Y309332D02*
X249998D01*
X250831Y308499D01*
Y306833D01*
X249998Y306000D01*
X247499D01*
X245000Y310165D02*
Y309332D01*
X245833D01*
X244167D01*
X245000D01*
Y306833D01*
X244167Y306000D01*
X233337D02*
X236669D01*
X233337Y309332D01*
Y310165D01*
X234170Y310998D01*
X235836D01*
X236669Y310165D01*
X231671D02*
X230838Y310998D01*
X229172D01*
X228339Y310165D01*
Y306833D01*
X229172Y306000D01*
X230838D01*
X231671Y306833D01*
Y310165D01*
X223340Y306000D02*
X226673D01*
X223340Y309332D01*
Y310165D01*
X224173Y310998D01*
X225840D01*
X226673Y310165D01*
X221674Y306000D02*
X220008D01*
X220841D01*
Y310998D01*
X221674Y310165D01*
M02*
