G04*
G04 #@! TF.GenerationSoftware,Altium Limited,Altium Designer,21.6.4 (81)*
G04*
G04 Layer_Physical_Order=2*
G04 Layer_Color=16711680*
%FSLAX44Y44*%
%MOMM*%
G71*
G04*
G04 #@! TF.SameCoordinates,CE7750B5-B6F3-47FA-9723-5704EF157F2E*
G04*
G04*
G04 #@! TF.FilePolarity,Positive*
G04*
G01*
G75*
%ADD49C,1.2000*%
%ADD51C,1.0000*%
%ADD52C,1.6000*%
%ADD53R,1.6000X1.6000*%
%ADD54C,1.3100*%
%ADD55R,1.6000X1.6000*%
%ADD56C,0.6000*%
%ADD57C,1.0000*%
G36*
X283249Y618730D02*
X280865Y617742D01*
X276699Y615190D01*
X272983Y612016D01*
X269811Y608301D01*
X267258Y604135D01*
X265388Y599622D01*
X264247Y594871D01*
X263864Y590000D01*
X264247Y585129D01*
X265388Y580378D01*
X267258Y575865D01*
X269811Y571699D01*
X272983Y567984D01*
X276699Y564810D01*
X280865Y562258D01*
X285378Y560388D01*
X290129Y559247D01*
X295000Y558864D01*
X299871Y559247D01*
X304622Y560388D01*
X309135Y562258D01*
X313301Y564810D01*
X317017Y567984D01*
X320190Y571699D01*
X322742Y575865D01*
X323730Y578249D01*
X325000Y577996D01*
Y42004D01*
X323730Y41751D01*
X322742Y44135D01*
X320190Y48301D01*
X317017Y52017D01*
X313301Y55189D01*
X309135Y57742D01*
X304622Y59612D01*
X299871Y60753D01*
X295000Y61136D01*
X290129Y60753D01*
X285378Y59612D01*
X280865Y57742D01*
X276699Y55189D01*
X272983Y52017D01*
X269811Y48301D01*
X267258Y44135D01*
X265388Y39622D01*
X264247Y34871D01*
X263864Y30000D01*
X264247Y25129D01*
X265388Y20378D01*
X267258Y15865D01*
X269811Y11699D01*
X272983Y7983D01*
X276699Y4811D01*
X280865Y2258D01*
X283249Y1270D01*
X282996Y0D01*
X42004D01*
X41751Y1270D01*
X44135Y2258D01*
X48301Y4811D01*
X52017Y7983D01*
X55189Y11699D01*
X57742Y15865D01*
X59612Y20378D01*
X60753Y25129D01*
X61136Y30000D01*
X60753Y34871D01*
X59612Y39622D01*
X57742Y44135D01*
X55189Y48301D01*
X52017Y52017D01*
X48301Y55189D01*
X44135Y57742D01*
X39622Y59612D01*
X34871Y60753D01*
X30000Y61136D01*
X25129Y60753D01*
X20378Y59612D01*
X15865Y57742D01*
X11699Y55189D01*
X7983Y52017D01*
X4811Y48301D01*
X2258Y44135D01*
X1270Y41751D01*
X0Y42004D01*
Y577996D01*
X1270Y578249D01*
X2258Y575865D01*
X4811Y571699D01*
X7983Y567984D01*
X11699Y564810D01*
X15865Y562258D01*
X20378Y560388D01*
X25129Y559247D01*
X30000Y558864D01*
X34871Y559247D01*
X39622Y560388D01*
X44135Y562258D01*
X48301Y564810D01*
X52017Y567984D01*
X55189Y571699D01*
X57742Y575865D01*
X59612Y580378D01*
X60753Y585129D01*
X61136Y590000D01*
X60753Y594871D01*
X59612Y599622D01*
X57742Y604135D01*
X55189Y608301D01*
X52017Y612016D01*
X48301Y615190D01*
X44135Y617742D01*
X41751Y618730D01*
X42004Y620000D01*
X282996D01*
X283249Y618730D01*
D02*
G37*
%LPC*%
G36*
X107340Y357098D02*
X86260D01*
Y336017D01*
X107340D01*
Y357098D01*
D02*
G37*
G36*
X31197Y269090D02*
X28803D01*
X26491Y268470D01*
X24419Y267274D01*
X22726Y265581D01*
X21530Y263509D01*
X20910Y261197D01*
Y258803D01*
X21530Y256491D01*
X22726Y254419D01*
X24419Y252726D01*
X26491Y251530D01*
X28803Y250910D01*
X31197D01*
X33509Y251530D01*
X35581Y252726D01*
X37274Y254419D01*
X38470Y256491D01*
X39090Y258803D01*
Y261197D01*
X38470Y263509D01*
X37274Y265581D01*
X35581Y267274D01*
X33509Y268470D01*
X31197Y269090D01*
D02*
G37*
G36*
X306436Y224790D02*
X303661D01*
X300980Y224072D01*
X298577Y222684D01*
X296615Y220722D01*
X295227Y218318D01*
X294509Y215638D01*
Y212862D01*
X295227Y210182D01*
X296615Y207778D01*
X298577Y205816D01*
X300980Y204428D01*
X303661Y203710D01*
X306436D01*
X309117Y204428D01*
X311521Y205816D01*
X313483Y207778D01*
X314870Y210182D01*
X315589Y212862D01*
Y215638D01*
X314870Y218318D01*
X313483Y220722D01*
X311521Y222684D01*
X309117Y224072D01*
X306436Y224790D01*
D02*
G37*
G36*
X204500Y514614D02*
X185550D01*
X183321Y514320D01*
X181243Y513460D01*
X179459Y512091D01*
X20015Y352647D01*
X17682Y352022D01*
X15278Y350634D01*
X13316Y348672D01*
X11928Y346268D01*
X11210Y343588D01*
Y340812D01*
X11928Y338132D01*
X13316Y335728D01*
X15278Y333766D01*
X17682Y332378D01*
X20362Y331660D01*
X22786D01*
X58472Y295973D01*
Y201574D01*
X58766Y199344D01*
X59122Y198484D01*
X59626Y197267D01*
X60995Y195483D01*
X93036Y163442D01*
Y112661D01*
X91828Y110568D01*
X91110Y107888D01*
Y105112D01*
X91828Y102432D01*
X93216Y100028D01*
X95178Y98066D01*
X97582Y96678D01*
X100262Y95960D01*
X103038D01*
X105718Y96678D01*
X108122Y98066D01*
X110084Y100028D01*
X111472Y102432D01*
X112190Y105112D01*
Y107888D01*
X111472Y110568D01*
X110264Y112661D01*
Y167010D01*
X109970Y169239D01*
X109110Y171316D01*
X107741Y173100D01*
X107741Y173100D01*
X107302Y173539D01*
X107815Y174822D01*
X109709Y175329D01*
X111781Y176526D01*
X113325Y178070D01*
X114595Y177859D01*
Y136750D01*
X114854Y134782D01*
X115614Y132948D01*
X116822Y131372D01*
X130353Y117842D01*
X129696Y116703D01*
X128438Y117040D01*
X125662D01*
X122982Y116322D01*
X120578Y114934D01*
X118616Y112972D01*
X117228Y110568D01*
X116510Y107888D01*
Y105112D01*
X117228Y102432D01*
X118616Y100028D01*
X120578Y98066D01*
X122982Y96678D01*
X125662Y95960D01*
X128438D01*
X131118Y96678D01*
X133522Y98066D01*
X135484Y100028D01*
X136872Y102432D01*
X137590Y105112D01*
Y107888D01*
X137253Y109146D01*
X138392Y109803D01*
X141910Y106285D01*
Y105112D01*
X142628Y102432D01*
X144016Y100028D01*
X145978Y98066D01*
X148382Y96678D01*
X151062Y95960D01*
X153838D01*
X156518Y96678D01*
X158922Y98066D01*
X159751Y98895D01*
X167310D01*
Y95960D01*
X188390D01*
Y117040D01*
X167310D01*
Y114105D01*
X159751D01*
X158922Y114934D01*
X156518Y116322D01*
X153838Y117040D01*
X152665D01*
X129805Y139900D01*
Y276000D01*
Y339257D01*
X130634Y340086D01*
X132022Y342489D01*
X132740Y345170D01*
Y347945D01*
X132022Y350626D01*
X130634Y353029D01*
X128672Y354992D01*
X126268Y356379D01*
X123588Y357098D01*
X120812D01*
X118132Y356379D01*
X115728Y354992D01*
X113766Y353029D01*
X112378Y350626D01*
X111660Y347945D01*
Y345170D01*
X112378Y342489D01*
X113766Y340086D01*
X114595Y339257D01*
Y279150D01*
X104363Y268918D01*
X102691Y268470D01*
X100619Y267274D01*
X98926Y265581D01*
X97730Y263509D01*
X97110Y261197D01*
Y258803D01*
X97730Y256491D01*
X98926Y254419D01*
X100619Y252726D01*
X102691Y251530D01*
X105003Y250910D01*
X107397D01*
X109709Y251530D01*
X111781Y252726D01*
X113325Y254270D01*
X114595Y254059D01*
Y189741D01*
X113325Y189530D01*
X111781Y191074D01*
X109709Y192271D01*
X107397Y192890D01*
X105003D01*
X102691Y192271D01*
X100619Y191074D01*
X98926Y189381D01*
X97730Y187309D01*
X97222Y185415D01*
X95939Y184902D01*
X75700Y205141D01*
Y299541D01*
X75406Y301771D01*
X74546Y303848D01*
X73177Y305632D01*
X73177Y305632D01*
X35270Y343539D01*
X189118Y497386D01*
X204500D01*
X206729Y497680D01*
X208807Y498540D01*
X210591Y499909D01*
X211960Y501693D01*
X212820Y503771D01*
X213114Y506000D01*
X212820Y508229D01*
X211960Y510307D01*
X210591Y512091D01*
X208807Y513460D01*
X206729Y514320D01*
X204500Y514614D01*
D02*
G37*
%LPD*%
D49*
X101650Y106500D02*
Y167010D01*
X21750Y342200D02*
X22515Y341435D01*
X25193D01*
X67086Y299541D01*
Y201574D02*
Y299541D01*
Y201574D02*
X101650Y167010D01*
X21750Y342200D02*
X185550Y506000D01*
X204500D01*
D51*
X152450Y106500D02*
X177850D01*
X122200Y136750D02*
X152450Y106500D01*
X122200Y136750D02*
Y276000D01*
Y346558D01*
X106200Y260000D02*
X122200Y276000D01*
D52*
X152450Y106500D02*
D03*
X127050D02*
D03*
X101650D02*
D03*
X177100Y45007D02*
D03*
X151700D02*
D03*
X126300D02*
D03*
X122200Y346558D02*
D03*
X21750Y342200D02*
D03*
X305049Y214250D02*
D03*
D53*
X177850Y106500D02*
D03*
X100900Y45007D02*
D03*
X96800Y346558D02*
D03*
D54*
X106200Y183800D02*
D03*
X30000Y260000D02*
D03*
Y183800D02*
D03*
X106200Y260000D02*
D03*
D55*
X21750Y316800D02*
D03*
D56*
X65000Y345000D02*
D03*
X95000Y500000D02*
D03*
Y525000D02*
D03*
Y480000D02*
D03*
X65000D02*
D03*
X35000D02*
D03*
X65000Y500000D02*
D03*
X35000D02*
D03*
X65000Y525000D02*
D03*
X35000D02*
D03*
X145000Y270000D02*
D03*
X140000Y405000D02*
D03*
Y515000D02*
D03*
X305000Y530000D02*
D03*
X285000Y290000D02*
D03*
X265000Y105000D02*
D03*
X30000Y110000D02*
D03*
X220000Y600000D02*
D03*
X100000D02*
D03*
D57*
X204500Y506000D02*
D03*
M02*
