G04*
G04 #@! TF.GenerationSoftware,Altium Limited,Altium Designer,21.6.4 (81)*
G04*
G04 Layer_Color=32768*
%FSLAX44Y44*%
%MOMM*%
G71*
G04*
G04 #@! TF.SameCoordinates,CE7750B5-B6F3-47FA-9723-5704EF157F2E*
G04*
G04*
G04 #@! TF.FilePolarity,Positive*
G04*
G01*
G75*
%ADD13C,0.1000*%
%ADD58C,0.0500*%
D13*
X195245Y208250D02*
X205245D01*
X200245Y203250D02*
Y213250D01*
D58*
X283750Y137055D02*
Y175055D01*
X206250D02*
X283750D01*
X206250Y137055D02*
Y175055D01*
Y137055D02*
X283750D01*
X194050Y91050D02*
Y121950D01*
X85450D02*
X194050D01*
X85450Y91050D02*
Y121950D01*
Y91050D02*
X194050D01*
X139750Y101500D02*
Y111500D01*
X134750Y106500D02*
X144750D01*
X10150Y437830D02*
Y553000D01*
X122650D01*
Y437830D02*
Y553000D01*
X101550Y437830D02*
X122650D01*
X101550Y381650D02*
Y437830D01*
X31250Y381650D02*
X101550D01*
X31250D02*
Y437830D01*
X10150D02*
X31250D01*
X230750Y178097D02*
Y190497D01*
X206250D02*
X230750D01*
X206250Y178097D02*
Y190497D01*
Y178097D02*
X230750D01*
X268293Y389000D02*
X306292D01*
Y466500D01*
X268293D02*
X306292D01*
X268293Y389000D02*
Y466500D01*
X227250Y389000D02*
X265250D01*
Y466500D01*
X227250D02*
X265250D01*
X227250Y389000D02*
Y466500D01*
X280550Y343000D02*
X292950D01*
Y367500D01*
X280550D02*
X292950D01*
X280550Y343000D02*
Y367500D01*
X240050Y342750D02*
X252450D01*
Y367250D01*
X240050D02*
X252450D01*
X240050Y342750D02*
Y367250D01*
X198800Y342750D02*
X211200D01*
Y367250D01*
X198800D02*
X211200D01*
X198800Y342750D02*
Y367250D01*
X103250Y315665D02*
Y328065D01*
Y315665D02*
X127750D01*
Y328065D01*
X103250D02*
X127750D01*
X67793Y377450D02*
X92292D01*
Y365050D02*
Y377450D01*
X67793Y365050D02*
X92292D01*
X67793D02*
Y377450D01*
X40250Y365300D02*
X64750D01*
X40250D02*
Y377700D01*
X64750D01*
Y365300D02*
Y377700D01*
X119450Y63500D02*
Y88000D01*
X107050Y63500D02*
X119450D01*
X107050D02*
Y88000D01*
X119450D01*
X171700Y63500D02*
Y88000D01*
X159300Y63500D02*
X171700D01*
X159300D02*
Y88000D01*
X171700D01*
X87000Y232257D02*
X111500D01*
Y219858D02*
Y232257D01*
X87000Y219858D02*
X111500D01*
X87000D02*
Y232257D01*
X81500Y208500D02*
X130900D01*
Y159100D02*
Y208500D01*
X81500Y159100D02*
X130900D01*
X81500D02*
Y208500D01*
X170300Y419500D02*
Y444000D01*
X182700D01*
Y419500D02*
Y444000D01*
X170300Y419500D02*
X182700D01*
X234743Y220700D02*
X259242D01*
Y208300D02*
Y220700D01*
X234743Y208300D02*
X259242D01*
X234743D02*
Y220700D01*
X219300Y196250D02*
Y220750D01*
X231700D01*
Y196250D02*
Y220750D01*
X219300Y196250D02*
X231700D01*
X216245Y193540D02*
Y222960D01*
X184245Y193540D02*
Y222960D01*
X216245D01*
X184245Y193540D02*
X216245D01*
X172560Y226787D02*
X228440D01*
Y316957D01*
X172560D02*
X228440D01*
X172560Y226787D02*
Y316957D01*
X134000Y45007D02*
X144000D01*
X139000Y40007D02*
Y50007D01*
X84700Y60457D02*
X193300D01*
Y29557D02*
Y60457D01*
X84700Y29557D02*
X193300D01*
X84700D02*
Y60457D01*
X142250Y172200D02*
X166750D01*
Y159800D02*
Y172200D01*
X142250Y159800D02*
X166750D01*
X142250D02*
Y172200D01*
X5300Y284700D02*
X54700D01*
Y235300D02*
Y284700D01*
X5300Y235300D02*
X54700D01*
X5300D02*
Y284700D01*
X186000Y388750D02*
X224000D01*
Y466250D01*
X186000D02*
X224000D01*
X186000Y388750D02*
Y466250D01*
X80600Y362007D02*
X138400D01*
Y331107D02*
Y362007D01*
X80600Y331107D02*
X138400D01*
X80600D02*
Y362007D01*
X109500Y341558D02*
Y351558D01*
X104500Y346558D02*
X114500D01*
X5300Y208500D02*
X54700D01*
Y159100D02*
Y208500D01*
X5300Y159100D02*
X54700D01*
X5300D02*
Y208500D01*
X133943Y175250D02*
X175943D01*
X133943D02*
Y210750D01*
X175943D01*
Y175250D02*
Y210750D01*
X81500Y284700D02*
X130900D01*
Y235300D02*
Y284700D01*
X81500Y235300D02*
X130900D01*
X81500D02*
Y284700D01*
X6300Y300600D02*
Y358400D01*
X37200D01*
Y300600D02*
Y358400D01*
X6300Y300600D02*
X37200D01*
X16750Y329500D02*
X26750D01*
X21750Y324500D02*
Y334500D01*
X305049Y209250D02*
Y219250D01*
X300049Y214250D02*
X310049D01*
X289599Y198050D02*
Y230450D01*
X320499D01*
Y198050D02*
Y230450D01*
X289599Y198050D02*
X320499D01*
X73187Y321565D02*
X83187D01*
X78187Y316565D02*
Y326565D01*
X64187Y328065D02*
X92187D01*
Y315065D02*
Y328065D01*
X64187Y315065D02*
X92187D01*
X64187D02*
Y328065D01*
M02*
