G04*
G04 #@! TF.GenerationSoftware,Altium Limited,Altium Designer,21.6.4 (81)*
G04*
G04 Layer_Color=8421504*
%FSLAX44Y44*%
%MOMM*%
G71*
G04*
G04 #@! TF.SameCoordinates,CE7750B5-B6F3-47FA-9723-5704EF157F2E*
G04*
G04*
G04 #@! TF.FilePolarity,Positive*
G04*
G01*
G75*
%ADD14R,1.0000X1.0000*%
%ADD15R,2.4500X3.3000*%
%ADD16R,1.4500X3.9200*%
%ADD17R,0.8300X0.9400*%
%ADD18R,3.3000X2.4500*%
%ADD19R,0.9400X0.8300*%
%ADD20R,0.5541X0.4627*%
%ADD21R,0.8020X0.9720*%
%ADD22R,5.0000X3.0000*%
%ADD23R,1.2000X0.6000*%
%ADD24R,0.8000X0.8000*%
G36*
X63700Y489550D02*
X51100D01*
Y504050D01*
X63700D01*
Y489550D01*
D02*
G37*
G36*
X45700D02*
X33100D01*
Y504050D01*
X45700D01*
Y489550D01*
D02*
G37*
G36*
X27700D02*
X15100D01*
Y504050D01*
X27700D01*
Y489550D01*
D02*
G37*
G36*
X63700Y469150D02*
X51100D01*
Y483650D01*
X63700D01*
Y469150D01*
D02*
G37*
G36*
X45700D02*
X33100D01*
Y483650D01*
X45700D01*
Y469150D01*
D02*
G37*
G36*
X27700D02*
X15100D01*
Y483650D01*
X27700D01*
Y469150D01*
D02*
G37*
G36*
X63700Y529950D02*
X51100D01*
Y544450D01*
X63700D01*
Y529950D01*
D02*
G37*
G36*
X45700D02*
X33100D01*
Y544450D01*
X45700D01*
Y529950D01*
D02*
G37*
G36*
X27700D02*
X15100D01*
Y544450D01*
X27700D01*
Y529950D01*
D02*
G37*
G36*
X63700Y509950D02*
X51100D01*
Y524450D01*
X63700D01*
Y509950D01*
D02*
G37*
G36*
X45700D02*
X33100D01*
Y524450D01*
X45700D01*
Y509950D01*
D02*
G37*
G36*
X27700D02*
X15100D01*
Y524450D01*
X27700D01*
Y509950D01*
D02*
G37*
G36*
X117700Y489550D02*
X105100D01*
Y504050D01*
X117700D01*
Y489550D01*
D02*
G37*
G36*
X99700D02*
X87100D01*
Y504050D01*
X99700D01*
Y489550D01*
D02*
G37*
G36*
X81700D02*
X69100D01*
Y504050D01*
X81700D01*
Y489550D01*
D02*
G37*
G36*
X117700Y469150D02*
X105100D01*
Y483650D01*
X117700D01*
Y469150D01*
D02*
G37*
G36*
X99700D02*
X87100D01*
Y483650D01*
X99700D01*
Y469150D01*
D02*
G37*
G36*
X81700D02*
X69100D01*
Y483650D01*
X81700D01*
Y469150D01*
D02*
G37*
G36*
X117700Y529950D02*
X105100D01*
Y544450D01*
X117700D01*
Y529950D01*
D02*
G37*
G36*
X99700D02*
X87100D01*
Y544450D01*
X99700D01*
Y529950D01*
D02*
G37*
G36*
X81700D02*
X69100D01*
Y544450D01*
X81700D01*
Y529950D01*
D02*
G37*
G36*
X117700Y509950D02*
X105100D01*
Y524450D01*
X117700D01*
Y509950D01*
D02*
G37*
G36*
X99700D02*
X87100D01*
Y524450D01*
X99700D01*
Y509950D01*
D02*
G37*
G36*
X81700D02*
X69100D01*
Y524450D01*
X81700D01*
Y509950D01*
D02*
G37*
D14*
X265000Y235000D02*
D03*
X140000Y150991D02*
D03*
X191500Y184500D02*
D03*
X240500Y247000D02*
D03*
D15*
X221000Y156055D02*
D03*
X269000D02*
D03*
D16*
X41000Y403750D02*
D03*
X66400D02*
D03*
X91800D02*
D03*
D17*
X211900Y184298D02*
D03*
X225100D02*
D03*
X122100Y321865D02*
D03*
X108900D02*
D03*
X73443Y371250D02*
D03*
X86643D02*
D03*
X59100Y371500D02*
D03*
X45900D02*
D03*
X92650Y226057D02*
D03*
X105850D02*
D03*
X240392Y214500D02*
D03*
X253592D02*
D03*
X147900Y166000D02*
D03*
X161100D02*
D03*
D18*
X287292Y451750D02*
D03*
Y403750D02*
D03*
X246250Y451750D02*
D03*
Y403750D02*
D03*
X205000Y451500D02*
D03*
Y403500D02*
D03*
D19*
X286750Y361850D02*
D03*
Y348650D02*
D03*
X246250Y361600D02*
D03*
Y348400D02*
D03*
X205000Y361600D02*
D03*
Y348400D02*
D03*
X113250Y82350D02*
D03*
Y69150D02*
D03*
X165500Y82350D02*
D03*
Y69150D02*
D03*
X176500Y425150D02*
D03*
Y438350D02*
D03*
X225500Y201900D02*
D03*
Y215100D02*
D03*
D20*
X281036Y214500D02*
D03*
X273949D02*
D03*
D21*
X200245Y217100D02*
D03*
X209745Y199400D02*
D03*
X190745D02*
D03*
D22*
X200500Y299567D02*
D03*
Y244568D02*
D03*
D23*
X167443Y183500D02*
D03*
Y193000D02*
D03*
Y202500D02*
D03*
X142443D02*
D03*
Y193000D02*
D03*
Y183500D02*
D03*
D24*
X86187Y321565D02*
D03*
X70187D02*
D03*
M02*
