G04*
G04 #@! TF.GenerationSoftware,Altium Limited,Altium Designer,21.6.4 (81)*
G04*
G04 Layer_Color=8388736*
%FSLAX44Y44*%
%MOMM*%
G71*
G04*
G04 #@! TF.SameCoordinates,CE7750B5-B6F3-47FA-9723-5704EF157F2E*
G04*
G04*
G04 #@! TF.FilePolarity,Negative*
G04*
G01*
G75*
%ADD20R,0.5541X0.4627*%
%ADD25R,1.2032X1.2032*%
%ADD26R,2.6532X3.5032*%
%ADD27R,1.6532X4.1232*%
%ADD28R,10.9532X8.9532*%
%ADD29R,1.0332X1.1432*%
%ADD30R,3.5032X2.6532*%
%ADD31R,1.1432X1.0332*%
%ADD32R,1.0052X1.1752*%
%ADD33R,5.2032X3.2032*%
%ADD34R,1.4032X0.8032*%
%ADD35R,1.0032X1.0032*%
%ADD36C,1.8032*%
%ADD37R,1.8032X1.8032*%
%ADD38C,0.2000*%
%ADD39C,1.5132*%
%ADD40R,1.8032X1.8032*%
%ADD41C,0.7016*%
%ADD42C,1.1016*%
D20*
X281036Y214500D02*
D03*
X273949D02*
D03*
D25*
X265000Y235000D02*
D03*
X140000Y150991D02*
D03*
X191500Y184500D02*
D03*
X240500Y247000D02*
D03*
D26*
X221000Y156055D02*
D03*
X269000D02*
D03*
D27*
X41000Y403750D02*
D03*
X66400D02*
D03*
X91800D02*
D03*
D28*
X66400Y506750D02*
D03*
D29*
X211900Y184298D02*
D03*
X225100D02*
D03*
X122100Y321865D02*
D03*
X108900D02*
D03*
X73443Y371250D02*
D03*
X86643D02*
D03*
X59100Y371500D02*
D03*
X45900D02*
D03*
X92650Y226057D02*
D03*
X105850D02*
D03*
X240392Y214500D02*
D03*
X253592D02*
D03*
X147900Y166000D02*
D03*
X161100D02*
D03*
D30*
X287292Y451750D02*
D03*
Y403750D02*
D03*
X246250Y451750D02*
D03*
Y403750D02*
D03*
X205000Y451500D02*
D03*
Y403500D02*
D03*
D31*
X286750Y361850D02*
D03*
Y348650D02*
D03*
X246250Y361600D02*
D03*
Y348400D02*
D03*
X205000Y361600D02*
D03*
Y348400D02*
D03*
X113250Y82350D02*
D03*
Y69150D02*
D03*
X165500Y82350D02*
D03*
Y69150D02*
D03*
X176500Y425150D02*
D03*
Y438350D02*
D03*
X225500Y201900D02*
D03*
Y215100D02*
D03*
D32*
X200245Y217100D02*
D03*
X209745Y199400D02*
D03*
X190745D02*
D03*
D33*
X200500Y299567D02*
D03*
Y244568D02*
D03*
D34*
X167443Y183500D02*
D03*
Y193000D02*
D03*
Y202500D02*
D03*
X142443D02*
D03*
Y193000D02*
D03*
Y183500D02*
D03*
D35*
X86187Y321565D02*
D03*
X70187D02*
D03*
D36*
X152450Y106500D02*
D03*
X127050D02*
D03*
X101650D02*
D03*
X177100Y45007D02*
D03*
X151700D02*
D03*
X126300D02*
D03*
X122200Y346558D02*
D03*
X21750Y342200D02*
D03*
X305049Y214250D02*
D03*
D37*
X177850Y106500D02*
D03*
X100900Y45007D02*
D03*
X96800Y346558D02*
D03*
D38*
X295000Y590000D02*
D03*
X30000D02*
D03*
X295000Y30000D02*
D03*
X30000D02*
D03*
D39*
X106200Y183800D02*
D03*
X30000Y260000D02*
D03*
Y183800D02*
D03*
X106200Y260000D02*
D03*
D40*
X21750Y316800D02*
D03*
D41*
X65000Y345000D02*
D03*
X95000Y500000D02*
D03*
Y525000D02*
D03*
Y480000D02*
D03*
X65000D02*
D03*
X35000D02*
D03*
X65000Y500000D02*
D03*
X35000D02*
D03*
X65000Y525000D02*
D03*
X35000D02*
D03*
X145000Y270000D02*
D03*
X140000Y405000D02*
D03*
Y515000D02*
D03*
X305000Y530000D02*
D03*
X285000Y290000D02*
D03*
X265000Y105000D02*
D03*
X30000Y110000D02*
D03*
X220000Y600000D02*
D03*
X100000D02*
D03*
D42*
X204500Y506000D02*
D03*
M02*
